<svg xmlns="http://www.w3.org/2000/svg" width="1600" height="900" viewBox="0 0 1600 900">
      <defs><linearGradient id="g" x1="0" y1="0" x2="1" y2="1"><stop stop-color="#050505"/><stop offset="1" stop-color="#16120c"/></linearGradient></defs>
      <rect width="1600" height="900" fill="url(#g)"/><rect x="760" y="120" width="46" height="620" fill="#D8B56A" fill-opacity=".12" transform="rotate(-7 760 450)"/><rect x="840" y="240" width="46" height="540" fill="#F47721" fill-opacity=".12" transform="rotate(0 840 450)"/><rect x="920" y="360" width="46" height="460" fill="#D8B56A" fill-opacity=".12" transform="rotate(7 920 450)"/><rect x="1000" y="120" width="46" height="380" fill="#F47721" fill-opacity=".12" transform="rotate(-7 1000 450)"/><rect x="1080" y="240" width="46" height="620" fill="#D8B56A" fill-opacity=".12" transform="rotate(0 1080 450)"/><rect x="1160" y="360" width="46" height="540" fill="#F47721" fill-opacity=".12" transform="rotate(7 1160 450)"/><rect x="1240" y="120" width="46" height="460" fill="#D8B56A" fill-opacity=".12" transform="rotate(-7 1240 450)"/><rect x="1320" y="240" width="46" height="380" fill="#F47721" fill-opacity=".12" transform="rotate(0 1320 450)"/><rect x="1400" y="360" width="46" height="620" fill="#D8B56A" fill-opacity=".12" transform="rotate(7 1400 450)"/><rect x="1480" y="120" width="46" height="540" fill="#F47721" fill-opacity=".12" transform="rotate(-7 1480 450)"/>
      <text x="90" y="700" fill="#F7F5EF" font-size="96" font-family="Arial Black,Arial" font-weight="900">BUILT BY VISION</text>
      <text x="96" y="760" fill="#D8B56A" font-size="24" font-family="Arial" letter-spacing="7">EDITORIAL PHOTO SLOT</text>
      <rect x="92" y="790" width="250" height="6" fill="#F47721"/>
    </svg>